<?xml version="1.0" encoding="utf-8"?>
<!-- Generator: Adobe Illustrator 16.0.0, SVG Export Plug-In . SVG Version: 6.00 Build 0)  -->
<!DOCTYPE svg PUBLIC "-//W3C//DTD SVG 1.1//EN" "http://www.w3.org/Graphics/SVG/1.1/DTD/svg11.dtd">
<svg version="1.1" id="Layer_1" xmlns="http://www.w3.org/2000/svg" xmlns:xlink="http://www.w3.org/1999/xlink" x="0px" y="0px"
	 width="204.838px" height="69.246px" viewBox="0 0 204.838 69.246" enable-background="new 0 0 204.838 69.246"
	 xml:space="preserve">
<g>
	<g>
		<path fill="#FFFFFF" d="M11.37,19.913c-0.637-0.319-1.409-0.713-2.167-1.127L9.19,18.808c0.577,0.528,1.198,1.149,1.701,1.686
			l1.687,1.751l-0.504,0.92L9.75,22.614c-0.705-0.164-1.547-0.394-2.295-0.643l-0.008,0.016c0.686,0.418,1.479,0.881,2.108,1.278
			l1.93,1.178l-0.598,1.092l-5.035-3.194l0.864-1.57l2.02,0.444c0.693,0.169,1.432,0.363,2.107,0.582l0.013-0.024
			c-0.523-0.478-1.113-1.033-1.603-1.522l-1.427-1.509l0.845-1.539l5.373,2.572l-0.633,1.154L11.37,19.913z M11.157,14.189
			l2.489,2.354c0.745,0.704,1.39,0.78,1.864,0.28c0.484-0.515,0.391-1.137-0.372-1.857l-2.489-2.354l0.923-0.976l2.425,2.295
			c1.333,1.26,1.33,2.533,0.264,3.663c-1.03,1.092-2.239,1.163-3.62-0.14l-2.411-2.283L11.157,14.189z M17.875,14.013
			c0.403-0.055,0.964-0.219,1.436-0.55c0.506-0.352,0.626-0.749,0.404-1.067c-0.21-0.304-0.564-0.315-1.296-0.119
			c-1.008,0.283-1.85,0.204-2.343-0.506c-0.581-0.833-0.33-1.954,0.821-2.757c0.552-0.383,1.037-0.548,1.417-0.619l0.374,1.06
			c-0.26,0.042-0.703,0.147-1.179,0.482c-0.48,0.331-0.562,0.709-0.382,0.964c0.216,0.311,0.587,0.255,1.383,0.057
			c1.084-0.281,1.801-0.116,2.282,0.571c0.57,0.819,0.424,1.954-0.916,2.887c-0.556,0.388-1.207,0.627-1.588,0.665L17.875,14.013z
			 M19.929,7.248l1.227-0.564l2.017,4.379l2.149-0.992l0.47,1.027l-3.376,1.554L19.929,7.248z M25.985,4.873l1.73,5.692
			l-1.291,0.392l-1.732-5.691L25.985,4.873z M33.354,7.363c-0.1-0.708-0.22-1.566-0.308-2.427l-0.025,0.002
			c-0.109,0.776-0.265,1.643-0.42,2.361l-0.479,2.384l-1.045,0.109l-0.873-2.227c-0.264-0.671-0.553-1.495-0.775-2.252h-0.016
			c0.049,0.804,0.116,1.719,0.149,2.462l0.129,2.258l-1.237,0.127l-0.239-5.955l1.781-0.186l0.785,1.915
			C31.037,6.602,31.3,7.319,31.501,8l0.028-0.005c0.096-0.701,0.216-1.504,0.34-2.181l0.428-2.034l1.75-0.181l0.938,5.883
			l-1.308,0.136L33.354,7.363z M40.065,4.251L39.56,6.482l2.16,0.487l0.506-2.229l1.309,0.295l-1.312,5.803l-1.308-0.294
			l0.547-2.429l-2.159-0.488l-0.549,2.427l-1.318-0.297l1.312-5.804L40.065,4.251z M44.976,10.377l-1.046,1.19l-1.254-0.606
			l4.226-4.565l1.587,0.77l-0.929,6.156l-1.301-0.628l0.25-1.576L44.976,10.377z M46.772,10.127l0.214-1.295
			c0.061-0.364,0.156-0.809,0.231-1.165l-0.017-0.008c-0.232,0.279-0.508,0.646-0.744,0.915l-0.867,0.982L46.772,10.127z
			 M47.987,13.624l3.728-4.637L52.94,9.97l-0.402,2.474c-0.118,0.71-0.305,1.51-0.52,2.198l0.02,0.017
			c0.422-0.667,0.904-1.312,1.464-2.006l1.088-1.356l0.963,0.775l-3.724,4.637l-1.102-0.884l0.445-2.585
			c0.124-0.715,0.301-1.559,0.512-2.284l-0.029-0.01c-0.463,0.634-0.976,1.3-1.583,2.055l-1.122,1.399L47.987,13.624z
			 M57.083,13.731c0.369,0.341,0.798,0.821,1.215,1.357c0.696,0.893,0.986,1.594,0.999,2.314c0.015,0.769-0.32,1.526-1.15,2.173
			c-0.899,0.698-1.774,0.854-2.509,0.7c-0.795-0.175-1.577-0.773-2.292-1.694c-0.429-0.549-0.699-0.964-0.869-1.257L57.083,13.731z
			 M54.085,17.78c0.048,0.109,0.163,0.254,0.268,0.386c0.741,0.966,1.757,1.18,2.878,0.306c0.979-0.752,1.05-1.724,0.34-2.635
			c-0.186-0.237-0.325-0.375-0.415-0.449L54.085,17.78z M57.201,21.508c-0.008,0.406,0.071,0.987,0.321,1.502
			c0.273,0.555,0.644,0.737,0.993,0.567c0.335-0.164,0.4-0.51,0.317-1.265c-0.125-1.038,0.083-1.857,0.861-2.236
			c0.912-0.449,1.982-0.027,2.596,1.235c0.295,0.604,0.387,1.108,0.399,1.495l-1.109,0.207c-0.002-0.265-0.037-0.719-0.292-1.242
			c-0.256-0.522-0.618-0.66-0.895-0.525c-0.34,0.167-0.345,0.542-0.271,1.361c0.113,1.113-0.161,1.796-0.915,2.164
			c-0.896,0.44-1.996,0.119-2.711-1.346c-0.297-0.611-0.436-1.291-0.417-1.673L57.201,21.508z M9.139,34.182L5.85,34.253
			c-0.983,0.022-1.476,0.408-1.462,1.068c0.015,0.676,0.5,1.041,1.508,1.019l3.291-0.073l0.03,1.287l-3.208,0.071
			c-1.762,0.039-2.62-0.832-2.655-2.323c-0.03-1.441,0.746-2.308,2.57-2.347l3.186-0.071L9.139,34.182z M3.776,39.808l5.55-1.373
			l0.361,1.466l-1.749,1.656c-0.504,0.472-1.113,0.974-1.677,1.374l0.006,0.025c0.713-0.262,1.454-0.473,2.285-0.678l1.62-0.401
			l0.286,1.152L4.911,44.4l-0.324-1.316l1.848-1.716c0.509-0.473,1.137-1.014,1.719-1.446l-0.012-0.025
			c-0.726,0.215-1.503,0.427-2.409,0.65l-1.671,0.411L3.776,39.808z M11.325,44.933l-5.279,2.191l-0.498-1.201l5.278-2.189
			L11.325,44.933z M11.196,47.126l-0.762-1.333l0.943-0.54l2.178,3.816l-0.944,0.537l-0.772-1.354l-4.022,2.296L7.174,49.42
			L11.196,47.126z M13.414,54.075l-1.337-1.625l-1.048,0.864l1.493,1.813L11.702,55.8l-2.314-2.815l4.415-3.629l2.24,2.723
			l-0.82,0.675l-1.415-1.723l-0.919,0.755l1.338,1.622L13.414,54.075z M16.473,52.694c0.415,0.245,0.92,0.606,1.426,1.019
			c0.838,0.689,1.258,1.287,1.419,1.957c0.179,0.717,0.019,1.501-0.622,2.279c-0.695,0.846-1.481,1.172-2.204,1.185
			c-0.783,0.005-1.641-0.395-2.505-1.103c-0.517-0.428-0.856-0.762-1.077-1L16.473,52.694z M14.515,57.122
			c0.067,0.09,0.205,0.204,0.33,0.307c0.899,0.748,1.898,0.733,2.764-0.317c0.763-0.913,0.624-1.839-0.235-2.548
			c-0.222-0.18-0.384-0.28-0.485-0.331L14.515,57.122z M22.016,56.717l3.154,1.502l-0.456,0.955l-1.982-0.942l-0.563,1.176
			l1.854,0.885l-0.454,0.949l-1.852-0.883l-0.989,2.078l-1.17-0.561L22.016,56.717z M30.216,62.505
			c-0.452,1.817-1.828,2.644-3.45,2.24c-1.645-0.41-2.298-1.895-1.904-3.472c0.416-1.662,1.786-2.639,3.424-2.231
			C29.989,59.465,30.598,60.975,30.216,62.505z M26.192,61.575c-0.271,1.088,0.049,1.982,0.889,2.188
			c0.847,0.213,1.533-0.471,1.8-1.551c0.249-0.993-0.015-1.971-0.878-2.185C27.156,59.815,26.46,60.499,26.192,61.575z
			 M31.505,59.865c0.417-0.057,1.038-0.086,1.725-0.063c0.85,0.029,1.438,0.177,1.835,0.514c0.327,0.281,0.5,0.686,0.483,1.213
			c-0.024,0.729-0.56,1.211-1.057,1.373v0.023c0.394,0.175,0.601,0.565,0.728,1.094c0.155,0.651,0.307,1.402,0.411,1.627
			l-1.324-0.044c-0.084-0.165-0.205-0.638-0.352-1.347c-0.127-0.715-0.368-0.917-0.893-0.944l-0.391-0.015l-0.077,2.246
			l-1.279-0.041L31.505,59.865z M32.703,62.367l0.509,0.015c0.643,0.024,1.038-0.286,1.055-0.789
			c0.016-0.521-0.33-0.798-0.923-0.825c-0.316-0.013-0.495,0.009-0.588,0.021L32.703,62.367z M38.393,60.649l-1.507,0.273
			l-0.195-1.067l4.319-0.788l0.196,1.069l-1.535,0.279l0.831,4.557l-1.278,0.231L38.393,60.649z M42.627,58.491l0.813,2.039
			l1.976-0.788l-0.811-2.041l1.197-0.476l2.114,5.313l-1.198,0.473l-0.885-2.222l-1.977,0.786l0.884,2.225l-1.204,0.482
			l-2.115-5.313L42.627,58.491z M51.183,57.697l-1.765,1.141l0.738,1.142l1.971-1.277l0.576,0.891l-3.063,1.979l-3.103-4.798
			l2.962-1.916l0.574,0.888l-1.872,1.215l0.644,0.996l1.766-1.142L51.183,57.697z M55.211,57.563l-4.164-3.912l1.03-1.1l2.341,0.569
			c0.67,0.165,1.423,0.403,2.066,0.658l0.016-0.016c-0.606-0.457-1.188-0.967-1.812-1.552l-1.217-1.142l0.812-0.866l4.167,3.913
			l-0.929,0.988l-2.443-0.619c-0.675-0.172-1.471-0.404-2.149-0.657l-0.013,0.022c0.575,0.492,1.174,1.03,1.855,1.671l1.252,1.174
			L55.211,57.563z M59.352,48.364l-1.116,1.782l1.148,0.721l1.249-1.99l0.896,0.563l-1.936,3.089l-4.84-3.036l1.874-2.988
			l0.896,0.564l-1.182,1.888l1.003,0.631l1.119-1.78L59.352,48.364z M61.28,44.012l-0.805,1.94l1.253,0.521l0.9-2.169l0.979,0.403
			l-1.394,3.369l-5.278-2.188l1.347-3.258l0.98,0.405l-0.852,2.061l1.096,0.454l0.805-1.94L61.28,44.012z M58.624,41.96
			c0.019-0.479,0.097-1.096,0.225-1.737c0.212-1.063,0.541-1.718,1.055-2.177c0.549-0.496,1.31-0.724,2.299-0.527
			c1.072,0.213,1.736,0.749,2.085,1.38c0.374,0.691,0.427,1.634,0.209,2.732c-0.13,0.659-0.264,1.113-0.367,1.423L58.624,41.96z
			 M63.452,41.596c0.046-0.104,0.08-0.279,0.113-0.435c0.235-1.147-0.25-2.021-1.589-2.289c-1.161-0.237-1.91,0.322-2.128,1.411
			c-0.058,0.283-0.07,0.47-0.065,0.583L63.452,41.596z M65.203,35.507l-2.342-0.038l-3.403,1.75l0.024-1.475l1.383-0.563
			c0.417-0.171,0.726-0.284,1.101-0.423v-0.017c-0.352-0.134-0.684-0.274-1.085-0.449l-1.364-0.6l0.022-1.45l3.301,1.936
			l2.382,0.039L65.203,35.507z M6.9,27.396c-0.59,0-1.071,0.48-1.071,1.073c0,0.591,0.481,1.069,1.071,1.069
			c0.594,0,1.075-0.479,1.075-1.069C7.976,27.876,7.494,27.396,6.9,27.396z M61.5,27.396c-0.594,0-1.071,0.48-1.071,1.073
			c0,0.591,0.477,1.069,1.071,1.069c0.59,0,1.071-0.479,1.071-1.069C62.571,27.876,62.09,27.396,61.5,27.396z M50.883,52.391h0.054
			v-0.053C50.919,52.355,50.902,52.373,50.883,52.391z M15.313,48.25c0.006-0.005,0.1-0.065,0.263-0.175
			c-0.348-0.487-0.679-0.99-0.992-1.507h3.179c0.427-0.302,0.887-0.637,1.365-0.994c-0.608-1.509-1.096-3.119-1.443-4.806h4.88
			c0.083,0.606,0.18,1.199,0.286,1.787c0.212-0.19,0.42-0.376,0.614-0.554c-0.067-0.405-0.131-0.817-0.188-1.233h1.501
			c0.268-0.255,0.503-0.487,0.722-0.706h-2.313c-0.194-1.625-0.303-3.317-0.316-5.054h5.032c0.011-0.021,0.021-0.045,0.033-0.067
			c0.622-1.224,0.719-1.447,0.921-2.125c0.021-1.216,0.067-2.389,0.133-3.519c-0.26-0.482-0.168-0.985,0.094-1.462
			c0.122-1.641,0.286-3.187,0.486-4.618h3.884c0.031-0.018,0.061-0.037,0.093-0.054c0.493-0.262,1.023-0.4,1.537-0.4
			c0.125,0,0.253,0.008,0.373,0.025c0.326,0.046,0.596,0.201,0.769,0.429h2.857c0.047,0.341,0.093,0.687,0.134,1.039
			c0.246,0.136,0.493,0.303,0.745,0.504c-0.06-0.521-0.123-1.038-0.194-1.543h4.513c0.448,1.591,0.806,3.297,1.063,5.093h-2.87
			c-0.004,0.099-0.013,0.199-0.03,0.294c-0.024,0.15-0.068,0.286-0.125,0.414h3.118c0.213,1.693,0.332,3.463,0.344,5.282h-3.805
			c0.081,0.228,0.148,0.466,0.212,0.708h3.593c-0.012,1.736-0.119,3.428-0.315,5.054h-2.503c0.133,0.302,0.351,0.522,0.647,0.706
			h1.765c-0.029,0.221-0.061,0.437-0.094,0.653c0.225,0.069,0.452,0.142,0.676,0.221c0.045-0.291,0.088-0.579,0.129-0.874h4.882
			c-0.203,0.995-0.46,1.962-0.757,2.899c0.121,0.066,0.242,0.132,0.369,0.201c0.086,0.047,0.175,0.095,0.263,0.144
			c0.338-1.045,0.624-2.129,0.844-3.244h4.878c-0.492,1.785-1.193,3.48-2.069,5.066c0.146,0.07,0.236,0.112,0.24,0.112l0.405,0.189
			c1.879-3.405,2.951-7.321,2.951-11.481c0-13.125-10.662-23.804-23.766-23.804c-13.105,0-23.765,10.678-23.765,23.804
			c0,5.145,1.638,9.914,4.419,13.811L15.313,48.25z M39.668,22.513c-0.279-1.86-0.625-3.586-1.032-5.116h3.3
			c0.827,1.486,1.547,3.208,2.135,5.116H39.668z M42.995,17.911c-0.088-0.173-0.179-0.346-0.27-0.514h3.059
			c1.248,1.486,2.333,3.208,3.218,5.116h-4.196C44.306,20.858,43.699,19.314,42.995,17.911z M46.055,28.312
			c-0.249-1.772-0.597-3.482-1.048-5.093h4.309c0.679,1.591,1.223,3.297,1.606,5.093H46.055z M51.104,40.063h-4.929
			c0.193-1.642,0.299-3.332,0.311-5.054h5.094C51.562,36.746,51.397,38.438,51.104,40.063z M46.486,34.302
			c-0.014-1.801-0.125-3.571-0.336-5.282h4.914c0.317,1.693,0.499,3.463,0.517,5.282H46.486z M56.745,40.063h-4.922
			c0.284-1.629,0.446-3.319,0.465-5.054h5.092C57.354,36.746,57.135,38.438,56.745,40.063z M57.38,34.302h-5.092
			c-0.019-1.817-0.196-3.584-0.506-5.282h4.908C57.116,30.712,57.354,32.482,57.38,34.302z M56.5,28.312h-4.858
			c-0.374-1.791-0.901-3.496-1.565-5.093h4.276C55.261,24.81,55.986,26.516,56.5,28.312z M53.933,22.513h-4.162
			c-0.848-1.889-1.887-3.611-3.081-5.116h2.944C51.302,18.883,52.751,20.605,53.933,22.513z M48.804,16.692h-2.701
			c-1.514-1.746-3.25-3.16-5.143-4.162C43.855,13.404,46.508,14.831,48.804,16.692z M45.163,16.692h-2.829
			c-1.157-1.98-2.48-3.487-3.902-4.474C40.931,13.037,43.221,14.586,45.163,16.692z M41.524,16.692H38.44
			c-0.624-2.146-1.379-3.833-2.252-4.831C38.186,12.521,40.012,14.228,41.524,16.692z M34.681,11.612
			c1.071,0.327,2.151,2.124,3.042,5.08h-3.042V11.612z M34.681,17.397h3.246c0.4,1.467,0.758,3.183,1.053,5.116h-4.299V17.397z
			 M17.547,40.063c-0.292-1.625-0.456-3.317-0.476-5.054h5.097c0.01,1.722,0.117,3.412,0.309,5.054H17.547z M22.168,34.302h-5.097
			c0.022-1.819,0.2-3.589,0.519-5.282h4.913C22.292,30.73,22.182,32.5,22.168,34.302z M22.597,28.312H17.73
			c0.383-1.796,0.926-3.502,1.606-5.093h4.308C23.194,24.83,22.845,26.54,22.597,28.312z M19.651,22.513
			c0.884-1.908,1.969-3.63,3.218-5.116h3.059c-0.089,0.168-0.183,0.341-0.27,0.514c-0.706,1.403-1.31,2.947-1.812,4.602H19.651z
			 M28.132,34.302h-5.261c0.014-1.819,0.131-3.589,0.344-5.282h5.093C28.2,30.76,28.137,32.534,28.132,34.302z M28.354,28.312
			h-5.046c0.255-1.796,0.616-3.502,1.066-5.093h4.51C28.657,24.844,28.48,26.555,28.354,28.312z M28.986,22.513h-4.404
			c0.588-1.908,1.309-3.63,2.136-5.116h3.297C29.611,18.927,29.266,20.653,28.986,22.513z M33.974,22.513h-4.3
			c0.292-1.933,0.65-3.649,1.054-5.116h3.247V22.513z M33.974,11.612v5.08h-3.043C31.822,13.735,32.901,11.938,33.974,11.612z
			 M30.215,16.692h-3.083c1.512-2.464,3.335-4.17,5.334-4.831C31.594,12.858,30.839,14.546,30.215,16.692z M26.323,16.692h-2.833
			c1.944-2.105,4.232-3.655,6.734-4.474C28.8,13.205,27.477,14.712,26.323,16.692z M27.695,12.53
			c-1.894,1.002-3.632,2.417-5.143,4.162h-2.703C22.144,14.831,24.799,13.404,27.695,12.53z M19.017,17.397h2.949
			c-1.198,1.505-2.236,3.227-3.084,5.116H14.72C15.901,20.605,17.351,18.883,19.017,17.397z M14.299,23.219h4.276
			c-0.662,1.598-1.19,3.302-1.564,5.093h-4.859C12.665,26.516,13.39,24.81,14.299,23.219z M11.964,29.02h4.908
			c-0.312,1.698-0.487,3.465-0.507,5.282h-5.09C11.3,32.482,11.538,30.712,11.964,29.02z M11.275,35.009h5.09
			c0.02,1.734,0.178,3.424,0.465,5.054h-4.923C11.518,38.438,11.299,36.746,11.275,35.009z M12.09,40.769h4.875
			c0.357,1.79,0.871,3.495,1.519,5.093h-4.308C13.289,44.27,12.583,42.563,12.09,40.769z M48.56,53.559
			c-0.157-0.105-0.331-0.228-0.511-0.358c-2.116,1.576-4.505,2.8-7.089,3.578c1.975-1.042,3.777-2.538,5.336-4.387h0.656
			c-0.309-0.232-0.629-0.477-0.958-0.733c-0.008,0.009-0.014,0.018-0.02,0.027h-3.126c0.046-0.095,0.101-0.19,0.147-0.286
			c0.241-0.483,0.473-0.982,0.691-1.497c-0.195-0.147-0.388-0.289-0.58-0.429c-0.324,0.783-0.673,1.521-1.047,2.211h-3.362
			c0.363-1.415,0.678-2.994,0.94-4.685c-0.57-0.409-1.081-0.769-1.642-1.138h-3.314v-2.31c-0.2,0.289-0.438,0.532-0.707,0.762v1.547
			h-2.023c-0.282,0.209-0.575,0.428-0.921,0.707h2.944v5.116h-3.308c-0.32-1.203-0.61-2.568-0.862-4.077
			c-0.185,0.166-0.382,0.343-0.599,0.542c0.221,1.258,0.47,2.446,0.753,3.536h-3.364c-0.119-0.219-0.235-0.446-0.349-0.678
			c-0.176,0.178-0.347,0.351-0.517,0.526c0.026,0.048,0.052,0.1,0.079,0.152h-0.229c-0.239,0.242-0.47,0.478-0.691,0.707h1.303
			c1.186,2.091,2.556,3.676,4.034,4.702c-2.251-0.739-4.333-2.075-6.142-3.865c-0.172,0.179-0.335,0.35-0.486,0.506
			c1.253,1.24,2.627,2.268,4.1,3.043c-1.742-0.523-3.394-1.249-4.936-2.151c-0.222,0.237-0.347,0.372-0.353,0.38l-0.14,0.152
			c3.537,2.098,7.661,3.302,12.061,3.302c5.382,0,10.349-1.801,14.336-4.833L48.56,53.559z M26.995,52.391h3.156
			c0.635,2.253,1.413,4.022,2.315,5.058C30.406,56.767,28.532,54.976,26.995,52.391z M33.974,57.699
			c-1.1-0.336-2.207-2.219-3.11-5.308h3.11V57.699z M34.681,46.568h4.334c-0.286,1.927-0.636,3.641-1.028,5.116h-3.306V46.568z
			 M34.681,57.699v-5.308h3.11C36.886,55.48,35.778,57.363,34.681,57.699z M38.503,52.391h3.154
			c-1.533,2.585-3.407,4.376-5.468,5.058C37.09,56.413,37.869,54.645,38.503,52.391z M42.462,52.391h2.906
			c-1.985,2.217-4.348,3.855-6.937,4.702C39.909,56.067,41.276,54.482,42.462,52.391z M15.495,49.108c0,0,4.584-2.938,7.694-5.711
			c3.111-2.772,4.413-4.309,4.706-4.622c0.294-0.316-0.069-1.738,0.799-3.448c0.715-1.405,0.777-1.577,1.051-2.522
			c0.43-1.489-0.064-2.226,0.799-2.732c0.957-0.56,0.72-1.176,2.269-1.218c1.514-0.041,2.65,0.294,3.909-0.295
			c0.785-0.366,1.976-0.378,3.533,0.674c1.553,1.05,2.479,2.395,1.389,4.034c-0.886-1.87-2.647-2.628-4.163-2.102
			c-0.419,0.145-0.779,0.629-1.032,0.905c-0.476,0.52-0.632,1.291-0.713,1.953c-0.125,1.008-0.146,0.861-0.463,1.871
			c-0.314,1.007-0.404,2.482-0.525,3.908c-0.125,1.494-0.188,1.955-0.504,2.775c-0.316,0.819-1.009,1.238-1.935,1.953
			c-1.232,0.951-1.955,1.325-4.793,4.035c-2.836,2.71-5.927,6.164-5.927,6.164s-1.584-0.866-3.475-2.618
			C16.261,50.39,15.495,49.108,15.495,49.108z M54.743,46.841c0,0-2.807-1.257-4.571-2.225c-1.763-0.966-2.646-1.43-4.204-2.061
			c-1.553-0.629-3.779-0.755-3.99-2.983c-0.21-2.229-0.421-5.969-2.185-6.892c-1.766-0.925-2.186-0.547-2.731-0.086
			c-0.548,0.462-0.548,2.059-0.759,3.322c-0.21,1.258-0.336,1.513-0.505,4.035c-0.166,2.521,0.253,3.699,1.893,4.706
			c1.641,1.01,2.607,1.809,4.791,3.322c2.186,1.512,5.377,4.021,6.932,5.075C52.563,50.614,54.743,46.841,54.743,46.841z
			 M36.848,27.32c0,0-0.355-0.417-0.798-0.924c-0.518-0.592-1.279-0.999-2.162-0.967c-0.886,0.031-1.518,0.348-2.557,1.23
			c-1.039,0.882-1.891,1.766-1.577,2.268c0.317,0.504,0.694-0.094,1.452-0.596c0.756-0.506,1.355-0.726,2.428-0.569
			c1.072,0.158,1.167,0.315,2.05,0.127C36.566,27.7,36.848,27.32,36.848,27.32z M41.326,28.959c0.348-0.221,0.441-1.008,0.03-1.544
			c-0.409-0.537-0.376-0.692-1.763-1.86c-1.386-1.166-2.143-0.913-2.899-0.786c-0.759,0.124-0.505,0.629,0.188,0.914
			c1.608,0.284,1.891,1.481,1.891,1.481S40.443,27.951,41.326,28.959z M32.876,24.862c0,0,0.568-0.093,1.137-0.033
			c0.567,0.063,0.82-0.061,1.197-0.378c0.381-0.314,0.568-0.757,0.127-0.817c-0.442-0.065-0.945,0.047-1.387,0.283
			C33.265,24.283,32.876,24.862,32.876,24.862z M36.745,23.978c0.294-0.145,0.524-0.082,0.84-0.019
			C37.313,23.538,36.935,23.643,36.745,23.978z"/>
	</g>
	<g>
		<path fill="#FFFFFF" d="M84.249,39.424L80.95,28.525v10.899h-2.625V26.057h4.877l2.347,8.001l2.467-8.001h4.892v13.368h-3.154
			V28.525l-3.362,10.899H84.249z"/>
		<path fill="#FFFFFF" d="M103.886,29.533v9.891h-2.703V37.74c-0.51,1.26-1.482,1.89-2.919,1.89c-0.744,0-1.315-0.138-1.714-0.416
			c-0.398-0.277-0.684-0.656-0.856-1.136c-0.173-0.48-0.26-1.174-0.26-2.081v-6.464h2.83v6.464c0,0.888,0.365,1.332,1.097,1.332
			c0.373,0,0.695-0.106,0.969-0.318c0.274-0.212,0.449-0.439,0.524-0.681c0.074-0.242,0.112-0.657,0.112-1.244v-5.553H103.886z"/>
		<path fill="#FFFFFF" d="M113.699,31.923l-2.125,0.568c-0.248-0.894-0.892-1.341-1.93-1.341c-0.979,0-1.469,0.297-1.469,0.893
			c0,0.235,0.09,0.424,0.27,0.564c0.18,0.14,0.648,0.259,1.405,0.356c1.129,0.149,1.965,0.321,2.507,0.517s0.972,0.526,1.288,0.989
			s0.475,1.035,0.475,1.714c0,1.018-0.387,1.848-1.16,2.487c-0.774,0.64-1.855,0.96-3.246,0.96c-2.521,0-4.025-0.976-4.516-2.928
			l2.458-0.363c0.202,0.888,0.935,1.332,2.194,1.332c0.483,0,0.891-0.086,1.225-0.26c0.332-0.173,0.499-0.408,0.499-0.703
			c0.001-0.458-0.369-0.729-1.106-0.813c-1.998-0.246-3.312-0.629-3.941-1.148c-0.631-0.519-0.946-1.242-0.946-2.169
			c0-0.94,0.366-1.717,1.098-2.331c0.731-0.613,1.756-0.92,3.075-0.92c1.044,0,1.881,0.206,2.507,0.617
			C112.886,30.356,113.366,31.016,113.699,31.923z"/>
		<path fill="#FFFFFF" d="M115.785,39.424V26.057h2.919v13.368H115.785z"/>
		<path fill="#FFFFFF" d="M124.021,25.783v2.918h-2.919v-2.918H124.021z M124.021,29.533v9.891h-2.919v-9.891H124.021z"/>
		<path fill="#FFFFFF" d="M140.552,39.424h-2.918V33.95c0-0.771-0.023-1.271-0.068-1.503c-0.046-0.231-0.165-0.424-0.358-0.578
			c-0.192-0.153-0.458-0.23-0.798-0.23c-0.32,0-0.646,0.114-0.979,0.343s-0.499,0.885-0.499,1.969v5.474h-2.919V33.95
			c0-0.79-0.035-1.301-0.107-1.533c-0.071-0.232-0.207-0.419-0.406-0.563s-0.452-0.216-0.76-0.216c-0.502,0-0.876,0.159-1.121,0.475
			c-0.244,0.317-0.367,0.929-0.367,1.836v5.474h-2.83v-9.891h2.742v1.508c0.465-1.143,1.394-1.714,2.786-1.714
			c1.263,0,2.174,0.571,2.737,1.714c0.548-1.143,1.505-1.714,2.869-1.714c0.653,0,1.215,0.134,1.685,0.401
			c0.471,0.268,0.807,0.617,1.009,1.048c0.202,0.431,0.304,1.171,0.304,2.223V39.424z"/>
		<path fill="#FFFFFF" d="M158.425,26.057v13.368h-3.075v-5.514h-4.172v5.514h-3.075V26.057h3.075v5.21h4.172v-5.21H158.425z"/>
		<path fill="#FFFFFF" d="M169.599,39.424h-2.83c-0.092-0.392-0.137-0.907-0.137-1.547c-0.496,0.706-0.99,1.174-1.482,1.405
			c-0.492,0.232-1.051,0.348-1.677,0.348c-0.926,0-1.674-0.251-2.243-0.754c-0.57-0.502-0.855-1.178-0.855-2.027
			c0-0.621,0.166-1.192,0.498-1.714c0.333-0.522,0.866-0.932,1.604-1.229c0.736-0.297,2.08-0.518,4.028-0.661v-0.568
			c0-0.96-0.479-1.439-1.435-1.439c-1.022,0-1.592,0.479-1.709,1.439l-2.693-0.255c0.176-1.123,0.709-1.919,1.597-2.389
			c0.888-0.47,1.893-0.705,3.017-0.705c0.672,0,1.305,0.079,1.899,0.235c0.594,0.156,1.058,0.392,1.392,0.705
			c0.332,0.313,0.557,0.645,0.675,0.994c0.117,0.35,0.177,0.958,0.177,1.826v4.485C169.423,38.436,169.482,39.052,169.599,39.424z
			 M166.504,34.685c-2.037,0.203-3.056,0.819-3.056,1.851c0,0.346,0.107,0.645,0.322,0.896c0.215,0.252,0.521,0.377,0.918,0.377
			c0.514,0,0.944-0.214,1.293-0.641c0.349-0.428,0.522-0.955,0.522-1.582V34.685z"/>
		<path fill="#FFFFFF" d="M180.431,39.424h-2.919v-5.553c0-0.672-0.025-1.132-0.078-1.381c-0.053-0.248-0.18-0.458-0.382-0.631
			s-0.458-0.26-0.764-0.26c-1.025,0-1.538,0.757-1.538,2.272v5.553h-2.918v-9.891h2.713v1.675c0.45-0.796,0.895-1.309,1.331-1.538
			c0.438-0.229,0.911-0.343,1.42-0.343c0.941,0,1.697,0.253,2.272,0.759s0.862,1.5,0.862,2.982V39.424z"/>
		<path fill="#FFFFFF" d="M191.252,26.057v13.368h-2.693v-1.547c-0.667,1.169-1.575,1.753-2.728,1.753
			c-1.092,0-1.953-0.445-2.584-1.336c-0.631-0.892-0.946-2.127-0.946-3.707c0-1.646,0.315-2.933,0.946-3.864
			c0.631-0.93,1.545-1.396,2.742-1.396c1.052,0,1.862,0.415,2.433,1.244v-4.515H191.252z M188.422,33.676
			c0-1.554-0.472-2.331-1.415-2.331c-1.126,0-1.69,1.097-1.69,3.291c0,1.953,0.527,2.928,1.582,2.928
			c0.406,0,0.762-0.176,1.066-0.528c0.304-0.353,0.457-0.855,0.457-1.509V33.676z"/>
		<path fill="#FFFFFF" d="M201.065,31.923l-2.126,0.568c-0.247-0.894-0.891-1.341-1.929-1.341c-0.979,0-1.469,0.297-1.469,0.893
			c0,0.235,0.09,0.424,0.27,0.564c0.179,0.14,0.647,0.259,1.405,0.356c1.129,0.149,1.965,0.321,2.507,0.517
			c0.541,0.196,0.971,0.526,1.287,0.989s0.476,1.035,0.476,1.714c0,1.018-0.388,1.848-1.161,2.487
			c-0.773,0.64-1.855,0.96-3.245,0.96c-2.521,0-4.026-0.976-4.516-2.928l2.458-0.363c0.202,0.888,0.935,1.332,2.194,1.332
			c0.482,0,0.891-0.086,1.225-0.26c0.332-0.173,0.498-0.408,0.498-0.703c0.001-0.458-0.368-0.729-1.105-0.813
			c-1.998-0.246-3.313-0.629-3.942-1.148s-0.945-1.242-0.945-2.169c0-0.94,0.365-1.717,1.098-2.331
			c0.731-0.613,1.756-0.92,3.074-0.92c1.045,0,1.881,0.206,2.507,0.617C200.252,30.356,200.732,31.016,201.065,31.923z"/>
	</g>
</g>
</svg>
